<svg xmlns="http://www.w3.org/2000/svg" width="120.78" height="17.215" viewBox="0 0 120.78 17.215">
  <g id="그룹_6" data-name="그룹 6" transform="translate(0 0)">
    <path id="패스_40" data-name="패스 40" d="M363.877,140.671l-.236-12.62h4.275v15.91h-6.147l-4.261-13.052h-.095l.238,13.052H353.4v-15.91h6.409l3.965,12.62Z" transform="translate(-263.904 -127.539)" fill="#010101"/>
    <path id="패스_41" data-name="패스 41" d="M273.172,129.541l-2.358,14.585h-4.668l3.2-16.076h7.68l3.183,16.076h-4.639l-2.3-14.585Z" transform="translate(-250.864 -127.539)" fill="#010101"/>
    <path id="패스_42" data-name="패스 42" d="M296.373,140.343l2.13-12.293h7.038l.38,16.076H301.6l-.11-14.45-.092,0-2.885,14.448h-4.382l-2.882-14.45h-.1l-.109,14.45h-4.32l.38-16.076h7.04l2.128,12.293Z" transform="translate(-253.94 -127.539)" fill="#010101"/>
    <path id="패스_43" data-name="패스 43" d="M256.2,139.448a1.983,1.983,0,0,1,.035,1.192c-.142.534-.533,1.078-1.682,1.078-1.079,0-1.737-.58-1.737-1.456l0-1.557h-4.628l0,1.24c0,3.586,3.032,4.667,6.274,4.667,3.124,0,5.691-.992,6.1-3.675a7.3,7.3,0,0,0-.019-2.634c-.728-3.37-7.28-4.373-7.765-6.255a1.894,1.894,0,0,1-.021-.844,1.407,1.407,0,0,1,1.577-1.078,1.423,1.423,0,0,1,1.6,1.456v.994h4.308v-1.131c0-3.5-3.377-4.049-5.82-4.049-3.067,0-5.577.947-6.035,3.568a5.136,5.136,0,0,0,.041,2.168C249.173,136.418,255.307,137.368,256.2,139.448Z" transform="translate(-248.179 -127.397)" fill="#010101"/>
    <path id="패스_44" data-name="패스 44" d="M322.19,139.442a1.948,1.948,0,0,1,.034,1.179c-.139.529-.527,1.067-1.666,1.067-1.069,0-1.717-.572-1.717-1.441l0-1.542h-4.583l0,1.227c0,3.55,3,4.622,6.213,4.622,3.091,0,5.634-.981,6.04-3.641a7.2,7.2,0,0,0-.019-2.607c-.72-3.335-7.206-4.327-7.687-6.192a1.878,1.878,0,0,1-.02-.834,1.393,1.393,0,0,1,1.561-1.071,1.409,1.409,0,0,1,1.587,1.445v.982h4.267v-1.119c0-3.466-3.343-4.007-5.765-4.007-3.035,0-5.519.934-5.974,3.532a5.1,5.1,0,0,0,.042,2.146C315.237,136.441,321.309,137.383,322.19,139.442Z" transform="translate(-258.053 -127.421)" fill="#010101"/>
    <path id="패스_45" data-name="패스 45" d="M339.555,141.718a1.527,1.527,0,0,0,1.657-1.166,3.016,3.016,0,0,0,.039-.612V128.048h4.368v11.527c.007.3-.027.9-.042,1.057-.3,3-2.848,3.973-6.022,3.973s-5.72-.975-6.022-3.973c-.015-.159-.049-.762-.04-1.057V128.048h4.366V139.94a2.875,2.875,0,0,0,.042.612A1.523,1.523,0,0,0,339.555,141.718Z" transform="translate(-260.928 -127.538)" fill="#010101"/>
    <path id="패스_46" data-name="패스 46" d="M381.875,141.432a1.6,1.6,0,0,0,1.764-1.168,3.286,3.286,0,0,0,.042-.611v-2.332H381.91v-2.343h6.114v4.309a9.653,9.653,0,0,1-.062,1.058c-.286,2.927-3.009,3.97-6.069,3.97s-5.784-1.043-6.071-3.97a9.427,9.427,0,0,1-.062-1.058v-6.764a10.24,10.24,0,0,1,.074-1.058c.385-3.005,3-3.972,6.058-3.972s5.74.958,6.06,3.972a9.591,9.591,0,0,1,.038,1.058v.535h-4.353v-.9a3.321,3.321,0,0,0-.055-.613,1.548,1.548,0,0,0-1.724-1.166,1.575,1.575,0,0,0-1.72,1.166,3.612,3.612,0,0,0-.069.762v7.347a3.291,3.291,0,0,0,.041.611A1.6,1.6,0,0,0,381.875,141.432Z" transform="translate(-267.245 -127.417)" fill="#010101"/>
  </g>
</svg>
